<svg id="Layer_1" data-name="Layer 1" xmlns="http://www.w3.org/2000/svg" viewBox="0 0 512 512"><defs><style>.cls-1{fill:#141f38;}.cls-2{fill:#dd2c6c;}.cls-3{fill:#17292d;opacity:0.14;}.cls-4{fill:#38bfd6;}</style></defs><title>atom-filled</title><path class="cls-1" d="M268.78,192a64,64,0,1,0,64.11,64A64.05,64.05,0,0,0,268.78,192Zm198.36,64c40.58-50.47,56.15-100.52,36.2-135-6.65-11.51-16.77-20.47-29.68-26.94a38.46,38.46,0,0,0-75.81-12.46,295.18,295.18,0,0,0-33.57,3.66C340.81,32.91,306.72,0,268.78,0s-72,32.91-95.5,85.21a279.74,279.74,0,0,0-45.25-4c-44.3,0-78.39,13-93.81,39.7-6,10.36-8.76,22.12-8.64,34.87A38.41,38.41,0,0,0,50.72,228.4,284.27,284.27,0,0,0,70.43,256c-40.58,50.47-56.15,100.52-36.2,135,15.42,26.7,49.51,39.7,93.81,39.7a279.72,279.72,0,0,0,45.24-4c23.47,52.3,57.56,85.22,95.5,85.22,21.63,0,42-10.71,59.87-29.58A38.41,38.41,0,0,0,379,428.86a262.93,262.93,0,0,0,30.49,1.88c44.3,0,78.39-13,93.81-39.7C523.3,356.52,507.73,306.46,467.14,256Zm-66-149A38.49,38.49,0,0,0,462.43,117c7.76,3.94,14.42,9.35,18.71,16.76,11.71,20.27,3.59,53.29-22.28,90.6q-4.16,6-8.8,12a459.87,459.87,0,0,0-58.18-52.12A403.68,403.68,0,0,0,374,109.58,260,260,0,0,1,401.19,107ZM320,344.7a542.56,542.56,0,0,1-51.25,26,542.58,542.58,0,0,1-51.25-26,543.38,543.38,0,0,1-47.92-31,490.82,490.82,0,0,1,0-115.42,550,550,0,0,1,99.17-57,550,550,0,0,1,99.16,57A481.84,481.84,0,0,1,371.35,256a481.84,481.84,0,0,1-3.4,57.71A543.32,543.32,0,0,1,320,344.7Zm42.22,4a349.43,349.43,0,0,1-13.73,48.91,409.07,409.07,0,0,1-47.23-13.92q15.76-7.81,31.54-16.87Q348.05,358.12,362.26,348.75Zm-126,35A409.05,409.05,0,0,1,189,397.67a349.43,349.43,0,0,1-13.73-48.92q14.19,9.35,29.42,18.13Q220.49,376,236.27,383.75ZM141.84,292a403.57,403.57,0,0,1-37.69-36,403.53,403.53,0,0,1,37.69-36q-1.24,17.65-1.27,36T141.84,292Zm33.48-128.76A349.41,349.41,0,0,1,189,114.32a409.06,409.06,0,0,1,47.23,13.92q-15.76,7.81-31.54,16.87Q189.52,153.86,175.32,163.23Zm126-35a409.06,409.06,0,0,1,47.23-13.92,349.42,349.42,0,0,1,13.73,48.91q-14.19-9.35-29.41-18.12Q317.08,136,301.3,128.24ZM395.73,220a403.56,403.56,0,0,1,37.69,36,403.52,403.52,0,0,1-37.69,36Q397,274.35,397,256T395.73,220ZM268.78,25.6c24.37,0,50.13,23.87,69.74,64.83a464.33,464.33,0,0,0-69.73,23,464.35,464.35,0,0,0-69.74-23C218.66,49.47,244.42,25.6,268.78,25.6ZM78.71,224.34q-4.17-6-7.71-11.87a38.36,38.36,0,0,0-19.8-56.7c-.08-8.38,1.63-15.81,5.23-22,13.51-23.39,50.66-26.89,71.6-26.89a249.46,249.46,0,0,1,35.58,2.72,403.69,403.69,0,0,0-17.92,74.63,459.84,459.84,0,0,0-58.17,52.12Q82.88,230.34,78.71,224.34ZM128,405.14c-20.94,0-58.08-3.49-71.6-26.89C44.73,358,52.85,325,78.72,287.65q4.16-6,8.8-12a459.88,459.88,0,0,0,58.17,52.11,403.7,403.7,0,0,0,17.92,74.63A249.44,249.44,0,0,1,128,405.14ZM268.78,486.4c-24.37,0-50.13-23.88-69.74-64.85a464.32,464.32,0,0,0,69.74-23,479.58,479.58,0,0,0,53.74,18.8A38.35,38.35,0,0,0,310.75,464C297.26,478.5,282.79,486.4,268.78,486.4ZM481.14,378.25c-13.51,23.39-50.66,26.89-71.6,26.89A249.47,249.47,0,0,1,374,402.41a403.7,403.7,0,0,0,17.92-74.62,459.85,459.85,0,0,0,58.18-52.12q4.64,6,8.8,12C484.73,325,492.85,358,481.14,378.25Z"/><path class="cls-2" d="M268.78,217.6A38.4,38.4,0,1,0,307.25,256,38.47,38.47,0,0,0,268.78,217.6Z"/><path class="cls-3" d="M278.31,192.78a51.19,51.19,0,1,1-73,71.57,64.07,64.07,0,1,0,73-71.57Z"/><path class="cls-4" d="M38.46,204.8A12.8,12.8,0,1,0,25.64,192,12.83,12.83,0,0,0,38.46,204.8Z"/><path class="cls-4" d="M435.46,102.4a12.8,12.8,0,1,0-12.82-12.8A12.83,12.83,0,0,0,435.46,102.4Z"/><path class="cls-4" d="M345.71,460.8A12.8,12.8,0,1,0,332.89,448,12.83,12.83,0,0,0,345.71,460.8Z"/></svg>