<svg id="Layer_1" data-name="Layer 1" xmlns="http://www.w3.org/2000/svg" viewBox="0 0 512 512"><defs><style>.cls-1{fill:#dd2c6c;}.cls-2{fill:#cad8dd;}.cls-3{fill:#38bfd6;}.cls-4{opacity:0.08;}.cls-5{fill:#17292d;}</style></defs><title>atom-flat</title><ellipse class="cls-1" cx="268.78" cy="256" rx="64.11" ry="64"/><path class="cls-2" d="M409.54,81.25h0a279.82,279.82,0,0,0-45.25,4C340.81,32.91,306.72,0,268.78,0s-72,32.91-95.5,85.21a279.75,279.75,0,0,0-45.25-4c-44.3,0-78.39,13-93.81,39.7-19.94,34.53-4.38,84.58,36.21,135-40.58,50.47-56.15,100.52-36.2,135,15.42,26.7,49.51,39.7,93.81,39.7a279.73,279.73,0,0,0,45.24-4c23.47,52.3,57.56,85.22,95.5,85.22s72-32.92,95.5-85.22a279.74,279.74,0,0,0,45.25,4c44.3,0,78.39-13,93.81-39.7,19.94-34.53,4.38-84.58-36.21-135.05,40.58-50.47,56.15-100.52,36.2-135-15.42-26.69-49.51-39.7-93.8-39.7m0,25.6h0c20.94,0,58.07,3.49,71.59,26.89,11.71,20.27,3.59,53.29-22.28,90.6q-4.16,6-8.8,12a459.88,459.88,0,0,0-58.18-52.12A403.68,403.68,0,0,0,374,109.58a249.51,249.51,0,0,1,35.58-2.72M433.42,256a403.54,403.54,0,0,1-37.69,36Q397,274.35,397,256t-1.27-36A403.58,403.58,0,0,1,433.42,256ZM320,344.7a542.56,542.56,0,0,1-51.25,26,542.58,542.58,0,0,1-51.25-26,548,548,0,0,1-47.92-31,490.81,490.81,0,0,1,0-115.47,549.91,549.91,0,0,1,99.17-57,550,550,0,0,1,99.16,57A481.81,481.81,0,0,1,371.35,256a481.86,481.86,0,0,1-3.4,57.71A543.36,543.36,0,0,1,320,344.7Zm42.22,4a349.44,349.44,0,0,1-13.73,48.92,409.06,409.06,0,0,1-47.23-13.92q15.76-7.81,31.54-16.87Q348.05,358.12,362.26,348.75Zm-126,35A409,409,0,0,1,189,397.67a349.45,349.45,0,0,1-13.73-48.92q14.19,9.35,29.42,18.13Q220.49,376,236.27,383.75Zm-94.43-91.66a406.41,406.41,0,0,1-37.8-36A403.35,403.35,0,0,1,141.84,220q-1.24,17.65-1.27,36T141.85,292.09Zm33.47-128.86A349.4,349.4,0,0,1,189,114.32a409.08,409.08,0,0,1,47.23,13.92q-15.76,7.81-31.54,16.87Q189.52,153.86,175.32,163.23Zm186.94,0q-14.19-9.35-29.41-18.12Q317.08,136,301.3,128.24a409.06,409.06,0,0,1,47.23-13.92A349.4,349.4,0,0,1,362.25,163.23ZM268.78,25.6c24.37,0,50.13,23.87,69.74,64.84a464.35,464.35,0,0,0-69.73,23,464.35,464.35,0,0,0-69.74-23C218.66,49.47,244.42,25.6,268.78,25.6ZM56.43,133.73c13.51-23.39,50.66-26.89,71.6-26.89a249.47,249.47,0,0,1,35.58,2.72,403.68,403.68,0,0,0-17.92,74.62,459.63,459.63,0,0,0-58.32,52.27C54.75,194.62,43.43,156.25,56.43,133.73ZM128,405.14c-20.94,0-58.08-3.49-71.6-26.89C44.73,358,52.85,325,78.72,287.65q4.16-6,8.8-12a459.88,459.88,0,0,0,58.17,52.11,403.7,403.7,0,0,0,17.92,74.63A249.44,249.44,0,0,1,128,405.14ZM268.78,486.4c-24.37,0-50.13-23.88-69.74-64.84a464.31,464.31,0,0,0,69.74-23,464.35,464.35,0,0,0,69.74,23C318.91,462.52,293.15,486.4,268.78,486.4ZM481.14,378.25c-13.51,23.39-50.66,26.89-71.6,26.89A249.46,249.46,0,0,1,374,402.41a403.71,403.71,0,0,0,17.92-74.62,459.84,459.84,0,0,0,58.18-52.12q4.64,6,8.8,12C484.73,325,492.85,358,481.14,378.25Z"/><ellipse class="cls-3" cx="435.46" cy="89.6" rx="38.46" ry="38.4"/><ellipse class="cls-3" cx="38.46" cy="192" rx="38.46" ry="38.4"/><ellipse class="cls-3" cx="345.71" cy="448" rx="38.46" ry="38.4"/><g class="cls-4"><path class="cls-5" d="M278.31,192.78a51.19,51.19,0,1,1-73,71.57,64.07,64.07,0,1,0,73-71.57Z"/></g></svg>